<svg height="1052.362205" width="744.094488" xmlns="http://www.w3.org/2000/svg"><path d="m407.76746-83.175888h13.428749v25h-13.428749z" fill="none" stroke="#000" stroke-width=".415" transform="matrix(1 0 0 -1 -18 38)"/><path d="m435.3508-83.175888h13.428749v25h-13.428749z" fill="none" stroke="#000" stroke-width=".415" transform="matrix(1 0 0 -1 -18 38)"/><path d="m421.43411-83.175888h13.428749v25h-13.428749z" fill="none" stroke="#000" stroke-width=".415" transform="matrix(1 0 0 -1 -18 38)"/><path d="m449.01746-83.175888h13.428749v25h-13.428749z" fill="none" stroke="#000" stroke-width=".415" transform="matrix(1 0 0 -1 -18 38)"/><path d="m80.000427-115.36218h13.428749v25h-13.428749z" fill="none" stroke="#000" stroke-width=".415" transform="matrix(1 0 0 -1 -27.5 18.75)"/><path d="m107.58376-115.36218h13.428749v25h-13.428749z" fill="none" stroke="#000" stroke-width=".415" transform="matrix(1 0 0 -1 -27.5 18.75)"/><path d="m93.667084-115.36218h13.428749v25h-13.428749z" fill="none" stroke="#000" stroke-width=".415" transform="matrix(1 0 0 -1 -27.5 18.75)"/><path d="m121.25042-115.36218h13.428749v25h-13.428749z" fill="none" stroke="#000" stroke-width=".415" transform="matrix(1 0 0 -1 -27.5 18.75)"/><path d="m107.5 109.36218h73.93647v25h-73.93647z" fill="none" stroke="#000" stroke-width=".460683"/><text font-family="Sans" font-size="6.508577" letter-spacing="0" word-spacing="0" x="118.23524" xml:space="preserve" y="119.92046"><tspan x="118.23524" y="119.92046">Dict Info String </tspan><tspan x="118.23524" y="128.05618">      UTF-16</tspan></text><text font-family="Sans" font-size="14" letter-spacing="0" word-spacing="0" x="69.25" y="122.86218"><tspan font-size="6" x="69.25" y="122.86218">Integer</tspan></text><path d="m80.000427-115.36218h13.428749v25h-13.428749z" fill="none" stroke="#000" stroke-width=".415" transform="matrix(1 0 0 -1 102.24591 18.734019)"/><path d="m107.58376-115.36218h13.428749v25h-13.428749z" fill="none" stroke="#000" stroke-width=".415" transform="matrix(1 0 0 -1 102.24591 18.734019)"/><path d="m93.667084-115.36218h13.428749v25h-13.428749z" fill="none" stroke="#000" stroke-width=".415" transform="matrix(1 0 0 -1 102.24591 18.734019)"/><path d="m121.25042-115.36218h13.428749v25h-13.428749z" fill="none" stroke="#000" stroke-width=".415" transform="matrix(1 0 0 -1 102.24591 18.734019)"/><text font-family="Sans" font-size="6" letter-spacing="0" word-spacing="0" x="82.25" y="89.862183"><tspan x="82.25" y="89.862183">Number of Bytes</tspan></text><g fill="#808000" stroke="#000" stroke-width=".415" transform="matrix(1 0 0 -1 -28 135)"><path d="m80.000427-115.36218h13.428749v25h-13.428749z"/><path d="m107.58376-115.36218h13.428749v25h-13.428749z"/><path d="m93.667084-115.36218h13.428749v25h-13.428749z"/><path d="m121.25042-115.36218h13.428749v25h-13.428749z"/></g><g fill="#808000" stroke="#000" stroke-width=".415" transform="matrix(1 0 0 -1 27 135)"><path d="m80.000427-115.36218h13.428749v25h-13.428749z"/><path d="m107.58376-115.36218h13.428749v25h-13.428749z"/><path d="m93.667084-115.36218h13.428749v25h-13.428749z"/><path d="m121.25042-115.36218h13.428749v25h-13.428749z"/></g><g fill="#808000" stroke="#000" stroke-width=".415" transform="matrix(1 0 0 -1 -28 164.5)"><path d="m80.000427-115.36218h13.428749v25h-13.428749z"/><path d="m107.58376-115.36218h13.428749v25h-13.428749z"/><path d="m93.667084-115.36218h13.428749v25h-13.428749z"/><path d="m121.25042-115.36218h13.428749v25h-13.428749z"/></g><g fill="#808000" stroke="#000" stroke-width=".415" transform="matrix(1 0 0 -1 27 164.5)"><path d="m80.000427-115.36218h13.428749v25h-13.428749z"/><path d="m107.58376-115.36218h13.428749v25h-13.428749z"/><path d="m93.667084-115.36218h13.428749v25h-13.428749z"/><path d="m121.25042-115.36218h13.428749v25h-13.428749z"/></g><text font-family="Sans" font-size="6" letter-spacing="0" word-spacing="0" x="79.25" y="270.11218"><tspan x="79.25" y="270.11218">Number of Entries</tspan></text><g fill="none" stroke="#000" stroke-width=".415" transform="matrix(1 0 0 -1 -28 194.75)"><path d="m80.000427-115.36218h13.428749v25h-13.428749z"/><path d="m107.58376-115.36218h13.428749v25h-13.428749z"/><path d="m93.667084-115.36218h13.428749v25h-13.428749z"/><path d="m121.25042-115.36218h13.428749v25h-13.428749z"/></g><g fill="none" stroke="#000" stroke-width=".415" transform="matrix(1 0 0 -1 27 194.75)"><path d="m80.000427-115.36218h13.428749v25h-13.428749z"/><path d="m107.58376-115.36218h13.428749v25h-13.428749z"/><path d="m93.667084-115.36218h13.428749v25h-13.428749z"/><path d="m121.25042-115.36218h13.428749v25h-13.428749z"/></g><g fill="#808000" stroke="#000" stroke-width=".415" transform="matrix(1 0 0 -1 -27.75 225)"><path d="m80.000427-115.36218h13.428749v25h-13.428749z"/><path d="m107.58376-115.36218h13.428749v25h-13.428749z"/><path d="m93.667084-115.36218h13.428749v25h-13.428749z"/><path d="m121.25042-115.36218h13.428749v25h-13.428749z"/></g><g fill="#808000" stroke="#000" stroke-width=".415" transform="matrix(1 0 0 -1 27.25 225)"><path d="m80.000427-115.36218h13.428749v25h-13.428749z"/><path d="m107.58376-115.36218h13.428749v25h-13.428749z"/><path d="m93.667084-115.36218h13.428749v25h-13.428749z"/><path d="m121.25042-115.36218h13.428749v25h-13.428749z"/></g><g fill="#808000" stroke="#000" stroke-width=".415" transform="matrix(1 0 0 -1 -27.5 254.5)"><path d="m80.000427-115.36218h13.428749v25h-13.428749z"/><path d="m107.58376-115.36218h13.428749v25h-13.428749z"/><path d="m93.667084-115.36218h13.428749v25h-13.428749z"/><path d="m121.25042-115.36218h13.428749v25h-13.428749z"/></g><g fill="#808000" stroke="#000" stroke-width=".415" transform="matrix(1 0 0 -1 27.5 254.5)"><path d="m80.000427-115.36218h13.428749v25h-13.428749z"/><path d="m107.58376-115.36218h13.428749v25h-13.428749z"/><path d="m93.667084-115.36218h13.428749v25h-13.428749z"/><path d="m121.25042-115.36218h13.428749v25h-13.428749z"/></g><text font-family="Sans" font-size="6" letter-spacing="0" word-spacing="0" x="173.5" y="322.11218"><tspan x="173.5" y="322.11218">Number of Bytes</tspan></text><text font-family="Sans" font-size="6" letter-spacing="0" word-spacing="0" x="170.75" y="354.86218"><tspan x="170.75" y="354.86218">Number of Bytes</tspan></text><path d="m80.000427-115.36218h13.428749v25h-13.428749z" fill="none" stroke="#000" stroke-width=".415" transform="matrix(1 0 0 -1 -27.5 286)"/><path d="m107.58376-115.36218h13.428749v25h-13.428749z" fill="none" stroke="#000" stroke-width=".415" transform="matrix(1 0 0 -1 -27.5 286)"/><path d="m93.667084-115.36218h13.428749v25h-13.428749z" fill="none" stroke="#000" stroke-width=".415" transform="matrix(1 0 0 -1 -27.5 286)"/><path d="m121.25042-115.36218h13.428749v25h-13.428749z" fill="none" stroke="#000" stroke-width=".415" transform="matrix(1 0 0 -1 -27.5 286)"/><path d="m454.13004 501.36218h43.12159v25h-43.12159z" fill="none" stroke="#000" stroke-width=".351819"/><text font-family="Sans" font-size="14" letter-spacing="0" word-spacing="0" x="464.75" y="515.11218"><tspan font-size="6" x="464.75" y="515.11218">Key Text</tspan></text><path d="m52.000004 409.11218h154.00163v25h-154.00163z" fill="none" stroke="#000" stroke-width=".664868"/><text font-family="Sans" font-size="14" letter-spacing="0" word-spacing="0" x="104.75" y="423.11218"><tspan font-size="6" x="104.75" y="423.11218">Key Block Info</tspan></text><g fill="#808000" stroke="#000" stroke-width=".415" transform="matrix(1 0 0 -1 -27.5 479)"><path d="m80.000427-115.36218h13.428749v25h-13.428749z"/><path d="m107.58376-115.36218h13.428749v25h-13.428749z"/><path d="m93.667084-115.36218h13.428749v25h-13.428749z"/><path d="m121.25042-115.36218h13.428749v25h-13.428749z"/></g><g fill="#808000" stroke="#000" stroke-width=".415" transform="matrix(1 0 0 -1 27.5 479)"><path d="m80.000427-115.36218h13.428749v25h-13.428749z"/><path d="m107.58376-115.36218h13.428749v25h-13.428749z"/><path d="m93.667084-115.36218h13.428749v25h-13.428749z"/><path d="m121.25042-115.36218h13.428749v25h-13.428749z"/></g><g fill="#808000" stroke="#000" stroke-width=".415" transform="matrix(1 0 0 -1 -27.5 508.5)"><path d="m80.000427-115.36218h13.428749v25h-13.428749z"/><path d="m107.58376-115.36218h13.428749v25h-13.428749z"/><path d="m93.667084-115.36218h13.428749v25h-13.428749z"/><path d="m121.25042-115.36218h13.428749v25h-13.428749z"/></g><g fill="#808000" stroke="#000" stroke-width=".415" transform="matrix(1 0 0 -1 27.5 508.5)"><path d="m80.000427-115.36218h13.428749v25h-13.428749z"/><path d="m107.58376-115.36218h13.428749v25h-13.428749z"/><path d="m93.667084-115.36218h13.428749v25h-13.428749z"/><path d="m121.25042-115.36218h13.428749v25h-13.428749z"/></g><text font-family="Sans" font-size="6" letter-spacing="0" word-spacing="0" x="79.75" y="614.11218"><tspan x="79.75" y="614.11218">Number of Entries</tspan></text><g fill="#808000" stroke="#000" stroke-width=".415" transform="matrix(1 0 0 -1 -27.5 544.75)"><path d="m80.000427-115.36218h13.428749v25h-13.428749z"/><path d="m107.58376-115.36218h13.428749v25h-13.428749z"/><path d="m93.667084-115.36218h13.428749v25h-13.428749z"/><path d="m121.25042-115.36218h13.428749v25h-13.428749z"/></g><g fill="#808000" stroke="#000" stroke-width=".415" transform="matrix(1 0 0 -1 27.5 544.75)"><path d="m80.000427-115.36218h13.428749v25h-13.428749z"/><path d="m107.58376-115.36218h13.428749v25h-13.428749z"/><path d="m93.667084-115.36218h13.428749v25h-13.428749z"/><path d="m121.25042-115.36218h13.428749v25h-13.428749z"/></g><g fill="#808000" stroke="#000" stroke-width=".415" transform="matrix(1 0 0 -1 -27.25 575)"><path d="m80.000427-115.36218h13.428749v25h-13.428749z"/><path d="m107.58376-115.36218h13.428749v25h-13.428749z"/><path d="m93.667084-115.36218h13.428749v25h-13.428749z"/><path d="m121.25042-115.36218h13.428749v25h-13.428749z"/></g><g fill="#808000" stroke="#000" stroke-width=".415" transform="matrix(1 0 0 -1 27.75 575)"><path d="m80.000427-115.36218h13.428749v25h-13.428749z"/><path d="m107.58376-115.36218h13.428749v25h-13.428749z"/><path d="m93.667084-115.36218h13.428749v25h-13.428749z"/><path d="m121.25042-115.36218h13.428749v25h-13.428749z"/></g><g fill="#808000" stroke="#000" stroke-width=".415" transform="matrix(1 0 0 -1 -28 606.5)"><path d="m80.000427-115.36218h13.428749v25h-13.428749z"/><path d="m107.58376-115.36218h13.428749v25h-13.428749z"/><path d="m93.667084-115.36218h13.428749v25h-13.428749z"/><path d="m121.25042-115.36218h13.428749v25h-13.428749z"/></g><g fill="#808000" stroke="#000" stroke-width=".415" transform="matrix(1 0 0 -1 27 606.5)"><path d="m80.000427-115.36218h13.428749v25h-13.428749z"/><path d="m107.58376-115.36218h13.428749v25h-13.428749z"/><path d="m93.667084-115.36218h13.428749v25h-13.428749z"/><path d="m121.25042-115.36218h13.428749v25h-13.428749z"/></g><g fill="#808000" stroke="#000" stroke-width=".415" transform="matrix(1 0 0 -1 90.5 606)"><path d="m80.000427-115.36218h13.428749v25h-13.428749z"/><path d="m107.58376-115.36218h13.428749v25h-13.428749z"/><path d="m93.667084-115.36218h13.428749v25h-13.428749z"/><path d="m121.25042-115.36218h13.428749v25h-13.428749z"/></g><g fill="#808000" stroke="#000" stroke-width=".415" transform="matrix(1 0 0 -1 145.5 606)"><path d="m80.000427-115.36218h13.428749v25h-13.428749z"/><path d="m107.58376-115.36218h13.428749v25h-13.428749z"/><path d="m93.667084-115.36218h13.428749v25h-13.428749z"/><path d="m121.25042-115.36218h13.428749v25h-13.428749z"/></g><text font-family="Sans" font-size="6" letter-spacing="0" word-spacing="0" x="135" y="729.86218"><tspan x="135" y="729.86218">.............................</tspan></text><g fill="#808000" stroke="#000" stroke-width=".415" transform="matrix(1 0 0 -1 -28.5 652)"><path d="m80.000427-115.36218h13.428749v25h-13.428749z"/><path d="m107.58376-115.36218h13.428749v25h-13.428749z"/><path d="m93.667084-115.36218h13.428749v25h-13.428749z"/><path d="m121.25042-115.36218h13.428749v25h-13.428749z"/></g><g fill="#808000" stroke="#000" stroke-width=".415" transform="matrix(1 0 0 -1 26.5 652)"><path d="m80.000427-115.36218h13.428749v25h-13.428749z"/><path d="m107.58376-115.36218h13.428749v25h-13.428749z"/><path d="m93.667084-115.36218h13.428749v25h-13.428749z"/><path d="m121.25042-115.36218h13.428749v25h-13.428749z"/></g><g fill="#808000" stroke="#000" stroke-width=".415" transform="matrix(1 0 0 -1 90 651.5)"><path d="m80.000427-115.36218h13.428749v25h-13.428749z"/><path d="m107.58376-115.36218h13.428749v25h-13.428749z"/><path d="m93.667084-115.36218h13.428749v25h-13.428749z"/><path d="m121.25042-115.36218h13.428749v25h-13.428749z"/></g><g fill="#808000" stroke="#000" stroke-width=".415" transform="matrix(1 0 0 -1 145 651.5)"><path d="m80.000427-115.36218h13.428749v25h-13.428749z"/><path d="m107.58376-115.36218h13.428749v25h-13.428749z"/><path d="m93.667084-115.36218h13.428749v25h-13.428749z"/><path d="m121.25042-115.36218h13.428749v25h-13.428749z"/></g><path d="m52.156902 782.5191h226.68782v40.922909h-226.68782z" fill="none" stroke="#000" stroke-width="1.032048"/><g fill="#808000" stroke="#000" stroke-width=".415"><g transform="matrix(1 0 0 -1 248.26703 38.813709)"><path d="m181.95317-115.86218h13.428749v25h-13.428749z"/><path d="m154.26567-115.86218h13.428749v25h-13.428749z"/><path d="m140.42192-115.86218h13.428749v25h-13.428749z"/><path d="m168.10942-115.86218h13.428749v25h-13.428749z"/></g><g transform="matrix(1 0 0 -1 303.26703 38.813709)"><path d="m181.95317-115.86218h13.428749v25h-13.428749z"/><path d="m154.26567-115.86218h13.428749v25h-13.428749z"/><path d="m140.42192-115.86218h13.428749v25h-13.428749z"/><path d="m168.10942-115.86218h13.428749v25h-13.428749z"/></g></g><text font-family="Sans" font-size="6" letter-spacing="0" word-spacing="0" x="454.26703" y="107.67589"><tspan x="454.26703" y="107.67589">4 bytes</tspan></text><text font-family="Sans" font-size="6" letter-spacing="0" word-spacing="0" x="506.26703" y="139.67589"><tspan x="506.26703" y="139.67589">4 bytes when version &lt; 2.0</tspan><tspan x="506.26703" y="147.17589">8 bytes when version &gt;= 2.0</tspan></text><path d="m388.76703 163.17589h154.00163v25h-154.00163z" fill="none" stroke="#000" stroke-width=".664868"/><text font-family="Sans" font-size="6" letter-spacing="0" word-spacing="0" x="545.76703" y="177.17589"><tspan x="545.76703" y="177.17589">Chunk of bytes with size determined elsewhere</tspan></text><text font-family="Sans" font-size="6" letter-spacing="0" transform="rotate(-90)" word-spacing="0" x="-798.97168" y="15.609495"><tspan x="-798.97168" y="15.609495">Number of Bytes</tspan></text><text font-family="Sans" font-size="6" letter-spacing="0" transform="rotate(-90)" word-spacing="0" x="-875.48492" y="23.398079"><tspan x="-875.48492" y="23.398079">Number of Bytes</tspan></text><text font-family="Sans" font-size="6" letter-spacing="0" word-spacing="0" x="389" y="54.612183"><tspan x="389" y="54.612183">Legend</tspan></text><text font-family="Sans" font-size="6" letter-spacing="0" word-spacing="0" x="125.80761" y="839.22821"><tspan x="125.80761" y="839.22821">.............................</tspan></text><path d="m51.096241 857.7915h226.68782v40.454983h-226.68782z" fill="none" stroke="#000" stroke-width="1.02613"/><text font-family="Sans" font-size="56.483883" letter-spacing="0" transform="scale(.99143323 1.0086408)" word-spacing="0" x="278.15454" y="741.33228"><tspan x="278.15454" y="741.33228">}</tspan></text><text font-family="Sans" font-size="73.920944" letter-spacing="0" transform="scale(.75529027 1.3239943)" word-spacing="0" x="367.95651" y="654.53668"><tspan x="367.95651" y="654.53668">}</tspan></text><path d="m80.000427-115.36218h13.428749v25h-13.428749z" fill="none" stroke="#000" stroke-width=".415" transform="matrix(1 0 0 -1 154.5 411.25)"/><path d="m107.58376-115.36218h13.428749v25h-13.428749z" fill="none" stroke="#000" stroke-width=".415" transform="matrix(1 0 0 -1 154.5 411.25)"/><path d="m93.667084-115.36218h13.428749v25h-13.428749z" fill="none" stroke="#000" stroke-width=".415" transform="matrix(1 0 0 -1 154.5 411.25)"/><path d="m121.25042-115.36218h13.428749v25h-13.428749z" fill="none" stroke="#000" stroke-width=".415" transform="matrix(1 0 0 -1 154.5 411.25)"/><path d="m289.50043-526.36218h13.428749v25h-13.428749z" fill="none" stroke="#000" stroke-width=".415" transform="scale(1 -1)"/><path d="m303.16708-526.36218h13.428749v25h-13.428749z" fill="none" stroke="#000" stroke-width=".415" transform="scale(1 -1)"/><g fill="none" stroke="#000" stroke-width=".415" transform="matrix(1 0 0 -1 180.5 145.25)"><path d="m136.58376-381.11218h13.428749v25h-13.428749z"/><path d="m150.25041-381.11218h13.428749v25h-13.428749z"/></g><text font-family="Sans" font-size="6" letter-spacing="0" word-spacing="0" x="237.25" y="515.86218"><tspan x="237.25" y="515.86218">00</tspan></text><text font-family="Sans" font-size="6" letter-spacing="0" word-spacing="0" x="250.5" y="515.86218"><tspan x="250.5" y="515.86218">00</tspan></text><text font-family="Sans" font-size="6" letter-spacing="0" word-spacing="0" x="265" y="515.86218"><tspan x="265" y="515.86218">00</tspan></text><text font-family="Sans" font-size="6" letter-spacing="0" word-spacing="0" x="278.75" y="515.86218"><tspan x="278.75" y="515.86218">00</tspan></text><path d="m80.000427-115.36218h13.428749v25h-13.428749z" fill="none" stroke="#000" stroke-width=".415" transform="matrix(1 0 0 -1 264.74999 411)"/><path d="m107.58376-115.36218h13.428749v25h-13.428749z" fill="none" stroke="#000" stroke-width=".415" transform="matrix(1 0 0 -1 264.74999 411)"/><path d="m93.667084-115.36218h13.428749v25h-13.428749z" fill="none" stroke="#000" stroke-width=".415" transform="matrix(1 0 0 -1 264.74999 411)"/><path d="m121.25042-115.36218h13.428749v25h-13.428749z" fill="none" stroke="#000" stroke-width=".415" transform="matrix(1 0 0 -1 264.74999 411)"/><path d="m80.000427-115.36218h13.428749v25h-13.428749z" fill="none" stroke="#000" stroke-width=".415" transform="matrix(1 0 0 -1 319.5 411)"/><path d="m107.58376-115.36218h13.428749v25h-13.428749z" fill="none" stroke="#000" stroke-width=".415" transform="matrix(1 0 0 -1 319.5 411)"/><path d="m93.667084-115.36218h13.428749v25h-13.428749z" fill="none" stroke="#000" stroke-width=".415" transform="matrix(1 0 0 -1 319.5 411)"/><path d="m121.25042-115.36218h13.428749v25h-13.428749z" fill="none" stroke="#000" stroke-width=".415" transform="matrix(1 0 0 -1 319.5 411)"/><text font-family="Sans" font-size="6" letter-spacing="0" word-spacing="0" x="347" y="517.86218"><tspan x="347" y="517.86218">00</tspan></text><text font-family="Sans" font-size="6" letter-spacing="0" word-spacing="0" x="360.25" y="517.86218"><tspan x="360.25" y="517.86218">00</tspan></text><text font-family="Sans" font-size="6" letter-spacing="0" word-spacing="0" x="374.75" y="517.86218"><tspan x="374.75" y="517.86218">00</tspan></text><text font-family="Sans" font-size="6" letter-spacing="0" word-spacing="0" x="388.5" y="517.86218"><tspan x="388.5" y="517.86218">00</tspan></text><text font-family="Sans" font-size="6" letter-spacing="0" word-spacing="0" x="400.75" y="517.36218"><tspan x="400.75" y="517.36218">00</tspan></text><text font-family="Sans" font-size="6" letter-spacing="0" word-spacing="0" x="414" y="517.36218"><tspan x="414" y="517.36218">00</tspan></text><text font-family="Sans" font-size="6" letter-spacing="0" word-spacing="0" x="428.5" y="517.36218"><tspan x="428.5" y="517.36218">00</tspan></text><text font-family="Sans" font-size="6" letter-spacing="0" word-spacing="0" x="442.25" y="517.36218"><tspan x="442.25" y="517.36218">00</tspan></text><path d="m51.250004 444.86218h154.00163v25h-154.00163z" fill="none" stroke="#000" stroke-width=".664868"/><path d="m80.000427-115.36218h13.428749v25h-13.428749z" fill="none" stroke="#000" stroke-width=".415" transform="matrix(1 0 0 -1 154.5 466.5)"/><path d="m107.58376-115.36218h13.428749v25h-13.428749z" fill="none" stroke="#000" stroke-width=".415" transform="matrix(1 0 0 -1 154.5 466.5)"/><path d="m93.667084-115.36218h13.428749v25h-13.428749z" fill="none" stroke="#000" stroke-width=".415" transform="matrix(1 0 0 -1 154.5 466.5)"/><path d="m121.25042-115.36218h13.428749v25h-13.428749z" fill="none" stroke="#000" stroke-width=".415" transform="matrix(1 0 0 -1 154.5 466.5)"/><g fill="none" stroke="#000" stroke-width=".415" transform="translate(4 120)"><path d="m285.50043-461.61218h13.428749v25h-13.428749z" transform="scale(1 -1)"/><path d="m299.16708-461.61218h13.428749v25h-13.428749z" transform="scale(1 -1)"/><g transform="matrix(1 0 0 -1 176.5 80.499997)"><path d="m136.58376-381.11218h13.428749v25h-13.428749z"/><path d="m150.25041-381.11218h13.428749v25h-13.428749z"/></g></g><text font-family="Sans" font-size="6" letter-spacing="0" word-spacing="0" x="237.25" y="571.11218"><tspan x="237.25" y="571.11218">02</tspan></text><text font-family="Sans" font-size="6" letter-spacing="0" word-spacing="0" x="250.5" y="571.11218"><tspan x="250.5" y="571.11218">00</tspan></text><text font-family="Sans" font-size="6" letter-spacing="0" word-spacing="0" x="265" y="571.11218"><tspan x="265" y="571.11218">00</tspan></text><text font-family="Sans" font-size="6" letter-spacing="0" word-spacing="0" x="278.75" y="571.11218"><tspan x="278.75" y="571.11218">00</tspan></text><text font-family="Sans" font-size="35.841354" letter-spacing="0" transform="scale(.51053751 1.9587199)" word-spacing="0" x="437.70081" y="286.86649"><tspan x="437.70081" y="286.86649">{</tspan></text><path d="m204.99842 516.16698 18.7176 27.41125" fill="none" stroke="#000" stroke-width="1.067932"/><path d="m344.38004 556.61218h166.51741v25h-166.51741z" fill="none" stroke="#000" stroke-width=".691357"/><text font-family="Sans" font-size="14" letter-spacing="0" word-spacing="0" x="383.5" y="571.36218"><tspan font-size="6" x="383.5" y="571.36218">Zlib Compressed Key Block</tspan></text><path d="m444.63721 898.85645h43.12159v25h-43.12159z" fill="none" stroke="#000" stroke-width=".351819"/><text font-family="Sans" font-size="14" letter-spacing="0" word-spacing="0" x="448.00714" y="915.60645"><tspan font-size="6" x="448.00714" y="915.60645">Record Text</tspan></text><path d="m80.000427-115.36218h13.428749v25h-13.428749z" fill="none" stroke="#000" stroke-width=".415" transform="matrix(1 0 0 -1 254.50714 808.99429)"/><path d="m107.58376-115.36218h13.428749v25h-13.428749z" fill="none" stroke="#000" stroke-width=".415" transform="matrix(1 0 0 -1 254.50714 808.99429)"/><path d="m93.667084-115.36218h13.428749v25h-13.428749z" fill="none" stroke="#000" stroke-width=".415" transform="matrix(1 0 0 -1 254.50714 808.99429)"/><path d="m121.25042-115.36218h13.428749v25h-13.428749z" fill="none" stroke="#000" stroke-width=".415" transform="matrix(1 0 0 -1 254.50714 808.99429)"/><path d="m389.50757-924.10645h13.428749v25h-13.428749z" fill="none" stroke="#000" stroke-width=".415" transform="scale(1 -1)"/><path d="m403.17422-924.10645h13.428749v25h-13.428749z" fill="none" stroke="#000" stroke-width=".415" transform="scale(1 -1)"/><g fill="none" stroke="#000" stroke-width=".415" transform="matrix(1 0 0 -1 280.50714 542.99429)"><path d="m136.58376-381.11218h13.428749v25h-13.428749z"/><path d="m150.25041-381.11218h13.428749v25h-13.428749z"/></g><text font-family="Sans" font-size="6" letter-spacing="0" word-spacing="0" x="337.25714" y="915.60651"><tspan x="337.25714" y="915.60651">00</tspan></text><text font-family="Sans" font-size="6" letter-spacing="0" word-spacing="0" x="350.50714" y="915.60651"><tspan x="350.50714" y="915.60651">00</tspan></text><text font-family="Sans" font-size="6" letter-spacing="0" word-spacing="0" x="365.00714" y="915.60651"><tspan x="365.00714" y="915.60651">00</tspan></text><text font-family="Sans" font-size="6" letter-spacing="0" word-spacing="0" x="378.75714" y="915.60651"><tspan x="378.75714" y="915.60651">00</tspan></text><path d="m487.50757-924.10645h13.428749v25h-13.428749z" fill="none" stroke="#000" stroke-width=".415" transform="scale(1 -1)"/><path d="m515.09088-924.10645h13.428749v25h-13.428749z" fill="none" stroke="#000" stroke-width=".415" transform="scale(1 -1)"/><path d="m501.17419-924.10645h13.428749v25h-13.428749z" fill="none" stroke="#000" stroke-width=".415" transform="scale(1 -1)"/><text font-family="Sans" font-size="6" letter-spacing="0" word-spacing="0" x="488.75714" y="915.10651"><tspan x="488.75714" y="915.10651">0D</tspan></text><text font-family="Sans" font-size="6" letter-spacing="0" word-spacing="0" x="502.00714" y="915.10651"><tspan x="502.00714" y="915.10651">0A</tspan></text><text font-family="Sans" font-size="6" letter-spacing="0" word-spacing="0" x="516.50714" y="915.10651"><tspan x="516.50714" y="915.10651">00</tspan></text><path d="m80.000427-115.36218h13.428749v25h-13.428749z" fill="none" stroke="#000" stroke-width=".415" transform="matrix(1 0 0 -1 254.50714 862.24429)"/><path d="m107.58376-115.36218h13.428749v25h-13.428749z" fill="none" stroke="#000" stroke-width=".415" transform="matrix(1 0 0 -1 254.50714 862.24429)"/><path d="m93.667084-115.36218h13.428749v25h-13.428749z" fill="none" stroke="#000" stroke-width=".415" transform="matrix(1 0 0 -1 254.50714 862.24429)"/><path d="m121.25042-115.36218h13.428749v25h-13.428749z" fill="none" stroke="#000" stroke-width=".415" transform="matrix(1 0 0 -1 254.50714 862.24429)"/><g fill="none" stroke="#000" stroke-width=".415" transform="translate(-36 -16)"><path d="m425.50757-993.35645h13.428749v25h-13.428749z" transform="scale(1 -1)"/><path d="m439.17422-993.35645h13.428749v25h-13.428749z" transform="scale(1 -1)"/><g transform="matrix(1 0 0 -1 316.50714 612.24429)"><path d="m136.58376-381.11218h13.428749v25h-13.428749z"/><path d="m150.25041-381.11218h13.428749v25h-13.428749z"/></g></g><text font-family="Sans" font-size="6" letter-spacing="0" word-spacing="0" x="337.25714" y="968.85651"><tspan x="337.25714" y="968.85651">02</tspan></text><text font-family="Sans" font-size="6" letter-spacing="0" word-spacing="0" x="350.50714" y="968.85651"><tspan x="350.50714" y="968.85651">00</tspan></text><text font-family="Sans" font-size="6" letter-spacing="0" word-spacing="0" x="365.00714" y="968.85651"><tspan x="365.00714" y="968.85651">00</tspan></text><text font-family="Sans" font-size="6" letter-spacing="0" word-spacing="0" x="378.75714" y="968.85651"><tspan x="378.75714" y="968.85651">00</tspan></text><path d="m444.38718 952.35645h169.43668v25h-169.43668z" fill="none" stroke="#000" stroke-width=".697391"/><text font-family="Sans" font-size="31.576826" letter-spacing="0" transform="scale(.57948689 1.7256646)" word-spacing="0" x="553.31903" y="554.15491"><tspan x="553.31903" y="554.15491">{</tspan></text><path d="m280.52728 894.54568 43.82745 47.35815" fill="none" stroke="#000" stroke-width="2.147952"/><text font-family="Sans" font-size="14" letter-spacing="0" word-spacing="0" x="532.50714" y="914.85645"><tspan font-size="6" x="532.50714" y="914.85645">Record Text</tspan></text><path d="m572.00757-923.35645h13.428749v25h-13.428749z" fill="none" stroke="#000" stroke-width=".415" transform="scale(1 -1)"/><path d="m599.59088-923.35645h13.428749v25h-13.428749z" fill="none" stroke="#000" stroke-width=".415" transform="scale(1 -1)"/><path d="m585.67419-923.35645h13.428749v25h-13.428749z" fill="none" stroke="#000" stroke-width=".415" transform="scale(1 -1)"/><text font-family="Sans" font-size="6" letter-spacing="0" word-spacing="0" x="573.25714" y="914.35651"><tspan x="573.25714" y="914.35651">0D</tspan></text><text font-family="Sans" font-size="6" letter-spacing="0" word-spacing="0" x="586.50714" y="914.35651"><tspan x="586.50714" y="914.35651">0A</tspan></text><text font-family="Sans" font-size="6" letter-spacing="0" word-spacing="0" x="601.00714" y="914.35651"><tspan x="601.00714" y="914.35651">00</tspan></text><path d="m528.88721 898.85645h43.12159v25h-43.12159z" fill="none" stroke="#000" stroke-width=".351819"/><text fill="#008000" x="281.29721" y="592.36578"><tspan x="281.29721" y="592.36578"/></text><text fill="#008000" font-family="Sans" font-size="6" letter-spacing="0" word-spacing="0" x="351.79721" y="987.36578"><tspan x="351.79721" y="987.36578">Adler checksum over the decompressed content</tspan></text><text font-family="Sans" font-size="14" letter-spacing="0" word-spacing="0" x="490.5" y="966.36218"><tspan font-size="6" x="490.5" y="966.36218">Zlib Compressed Key Block</tspan></text><path d="m181.95317-115.86218h13.428749v25h-13.428749z" fill="none" stroke="#000" stroke-width=".415" transform="matrix(1 0 0 -1 391.26702 508.313699)"/><path d="m154.26567-115.86218h13.428749v25h-13.428749z" fill="none" stroke="#000" stroke-width=".415" transform="matrix(1 0 0 -1 391.26702 508.313699)"/><path d="m140.42192-115.86218h13.428749v25h-13.428749z" fill="none" stroke="#000" stroke-width=".415" transform="matrix(1 0 0 -1 391.26702 508.313699)"/><path d="m168.10942-115.86218h13.428749v25h-13.428749z" fill="none" stroke="#000" stroke-width=".415" transform="matrix(1 0 0 -1 391.26702 508.313699)"/><path d="m181.95317-115.86218h13.428749v25h-13.428749z" fill="none" stroke="#000" stroke-width=".415" transform="matrix(1 0 0 -1 446.26702 508.313699)"/><path d="m154.26567-115.86218h13.428749v25h-13.428749z" fill="none" stroke="#000" stroke-width=".415" transform="matrix(1 0 0 -1 446.26702 508.313699)"/><path d="m140.42192-115.86218h13.428749v25h-13.428749z" fill="none" stroke="#000" stroke-width=".415" transform="matrix(1 0 0 -1 446.26702 508.313699)"/><path d="m168.10942-115.86218h13.428749v25h-13.428749z" fill="none" stroke="#000" stroke-width=".415" transform="matrix(1 0 0 -1 446.26702 508.313699)"/><path d="m419.23365 583.55649 97.49098 48.17508" fill="none" stroke="#000" stroke-width=".888612"/><text font-family="Sans" font-size="5.670228" letter-spacing="0" transform="matrix(.9351159 .47163274 -.56067743 .78660428 0 0)" word-spacing="0" x="699.94427" y="342.88855"><tspan x="699.94427" y="342.88855">Decompress</tspan></text><text font-family="Sans" font-size="6" letter-spacing="0" word-spacing="0" x="575.5" y="614.36218"><tspan x="575.5" y="614.36218">Key Id</tspan></text><path d="m642.13 599.36218h71.754089v25h-71.754089z" fill="none" stroke="#000" stroke-width=".453833"/><text font-family="Sans" font-size="6" letter-spacing="0" word-spacing="0" x="659" y="612.36218"><tspan x="659" y="612.36218">Key Text</tspan></text><text font-family="Sans" font-size="30.514938" letter-spacing="0" transform="scale(.53601651 1.8656142)" word-spacing="0" x="969.57092" y="349.78033"><tspan x="969.57092" y="349.78033">{</tspan></text><text font-family="Sans" font-size="6" letter-spacing="0" word-spacing="0" x="583" y="634.36218"><tspan x="583" y="634.36218">.............................</tspan></text><path d="m389.01746-89.675888h13.428749v25h-13.428749z" fill="#808000" stroke="#000" stroke-width=".415" transform="scale(1 -1)"/><path d="m714.01746-624.6759h13.428749v25h-13.428749z" fill="none" stroke="#000" stroke-width=".415" transform="scale(1 -1)"/><text font-family="Sans" font-size="6" letter-spacing="0" word-spacing="0" x="717.5" y="613.86218"><tspan x="717.5" y="613.86218">00</tspan></text><path d="m181.95317-115.86218h13.428749v25h-13.428749z" fill="none" stroke="#000" stroke-width=".415" transform="matrix(1 0 0 -1 391.26702 554.313699)"/><path d="m154.26567-115.86218h13.428749v25h-13.428749z" fill="none" stroke="#000" stroke-width=".415" transform="matrix(1 0 0 -1 391.26702 554.313699)"/><path d="m140.42192-115.86218h13.428749v25h-13.428749z" fill="none" stroke="#000" stroke-width=".415" transform="matrix(1 0 0 -1 391.26702 554.313699)"/><path d="m168.10942-115.86218h13.428749v25h-13.428749z" fill="none" stroke="#000" stroke-width=".415" transform="matrix(1 0 0 -1 391.26702 554.313699)"/><path d="m181.95317-115.86218h13.428749v25h-13.428749z" fill="none" stroke="#000" stroke-width=".415" transform="matrix(1 0 0 -1 446.26702 554.313699)"/><path d="m154.26567-115.86218h13.428749v25h-13.428749z" fill="none" stroke="#000" stroke-width=".415" transform="matrix(1 0 0 -1 446.26702 554.313699)"/><path d="m140.42192-115.86218h13.428749v25h-13.428749z" fill="none" stroke="#000" stroke-width=".415" transform="matrix(1 0 0 -1 446.26702 554.313699)"/><path d="m168.10942-115.86218h13.428749v25h-13.428749z" fill="none" stroke="#000" stroke-width=".415" transform="matrix(1 0 0 -1 446.26702 554.313699)"/><text font-family="Sans" font-size="6" letter-spacing="0" word-spacing="0" x="575.5" y="660.36218"><tspan x="575.5" y="660.36218">Key Id</tspan></text><path d="m642.13 645.36218h71.754089v25h-71.754089z" fill="none" stroke="#000" stroke-width=".453833"/><text font-family="Sans" font-size="6" letter-spacing="0" word-spacing="0" x="659" y="658.36218"><tspan x="659" y="658.36218">Key Text</tspan></text><path d="m714.01746-670.67584h13.428749v25h-13.428749z" fill="none" stroke="#000" stroke-width=".415" transform="scale(1 -1)"/><text font-family="Sans" font-size="6" letter-spacing="0" word-spacing="0" x="717.5" y="659.86218"><tspan x="717.5" y="659.86218">00</tspan></text><path d="m726.09088-1011.3564h13.428749v25h-13.428749z" fill="none" stroke="#000" stroke-width=".415" transform="scale(1 -1)"/><path d="m712.17419-1011.3564h13.428749v25h-13.428749z" fill="none" stroke="#000" stroke-width=".415" transform="scale(1 -1)"/><path d="m655.88721 986.35638h43.12159v25h-43.12159z" fill="none" stroke="#000" stroke-width=".351819"/><path d="m698.50757-1011.3564h13.428749v25h-13.428749z" fill="none" stroke="#000" stroke-width=".415" transform="scale(1 -1)"/><text font-family="Sans" font-size="6" letter-spacing="0" word-spacing="0" x="700.75714" y="1001.3565"><tspan x="700.75714" y="1001.3565">0D</tspan></text><text font-family="Sans" font-size="6" letter-spacing="0" word-spacing="0" x="714.00714" y="1001.3565"><tspan x="714.00714" y="1001.3565">0A</tspan></text><text font-family="Sans" font-size="6" letter-spacing="0" word-spacing="0" x="728.50714" y="1001.3565"><tspan x="728.50714" y="1001.3565">00</tspan></text><text font-family="Sans" font-size="14" letter-spacing="0" word-spacing="0" x="659.00714" y="1002.3564"><tspan font-size="6" x="659.00714" y="1002.3564">Record Text</tspan></text><path d="m583.1843 978.54654 54.13136 32.63136" fill="none" stroke="#000" stroke-width="1.368631"/><text font-family="Sans" font-size="6" letter-spacing="0" transform="matrix(.87601249 .48228842 -.48228842 .87601249 0 0)" word-spacing="0" x="996.66516" y="586.01434"><tspan x="996.66516" y="586.01434">Decompress</tspan></text><text font-family="Sans" font-size="6" letter-spacing="0" word-spacing="0" x="670" y="1017.8622"><tspan x="670" y="1017.8622">.............................</tspan></text><text font-family="Sans" font-size="29.0173" letter-spacing="0" transform="scale(.78674894 1.2710535)" word-spacing="0" x="816.52014" y="808.64087"><tspan x="816.52014" y="808.64087">{</tspan></text><path d="m725.59088-1047.3563h13.428749v25h-13.428749z" fill="none" stroke="#000" stroke-width=".415" transform="scale(1 -1)"/><path d="m711.67419-1047.3563h13.428749v25h-13.428749z" fill="none" stroke="#000" stroke-width=".415" transform="scale(1 -1)"/><path d="m655.38721 1022.3563h43.12159v25h-43.12159z" fill="none" stroke="#000" stroke-width=".351819"/><path d="m698.00757-1047.3563h13.428749v25h-13.428749z" fill="none" stroke="#000" stroke-width=".415" transform="scale(1 -1)"/><text font-family="Sans" font-size="6" letter-spacing="0" word-spacing="0" x="700.25714" y="1037.3564"><tspan x="700.25714" y="1037.3564">0D</tspan></text><text font-family="Sans" font-size="6" letter-spacing="0" word-spacing="0" x="713.50714" y="1037.3564"><tspan x="713.50714" y="1037.3564">0A</tspan></text><text font-family="Sans" font-size="6" letter-spacing="0" word-spacing="0" x="728.00714" y="1037.3564"><tspan x="728.00714" y="1037.3564">00</tspan></text><text font-family="Sans" font-size="14" letter-spacing="0" word-spacing="0" x="658.50714" y="1038.3563"><tspan font-size="6" x="658.50714" y="1038.3563">Record Text</tspan></text><text font-family="Sans" font-size="6" letter-spacing="0" word-spacing="0" x="102.5" y="457.86221"><tspan x="102.5" y="457.86221">Key Blocks</tspan></text><text font-family="Sans" font-size="6" letter-spacing="0" word-spacing="0" x="145.5" y="804.36218"><tspan x="145.5" y="804.36218">Record Block</tspan></text><text font-family="Sans" font-size="6" letter-spacing="0" word-spacing="0" x="141" y="877.36218"><tspan x="141" y="877.36218">Record Block</tspan></text><path d="m497.51746-526.1759h13.428749v25h-13.428749z" fill="none" stroke="#000" stroke-width=".415" transform="scale(1 -1)"/><text font-family="Sans" font-size="6" letter-spacing="0" word-spacing="0" x="500" y="514.36218"><tspan x="500" y="514.36218">00</tspan></text><text font-family="Sans" font-size="6" letter-spacing="0" word-spacing="0" x="97" y="479.36218"><tspan x="97" y="479.36218">.............................</tspan></text><path d="m51.750004 490.36218h154.00163v25h-154.00163z" fill="none" stroke="#000" stroke-width=".664868"/><text font-family="Sans" font-size="6" letter-spacing="0" word-spacing="0" x="103" y="503.36221"><tspan x="103" y="503.36221">Key Blocks</tspan></text><text font-family="Sans" font-size="39.356361" letter-spacing="0" transform="scale(.7116406 1.4052037)" word-spacing="0" x="287.01151" y="355.33734"><tspan x="287.01151" y="355.33734">}</tspan></text><text font-family="Sans" font-size="12" letter-spacing="0" word-spacing="0" x="47.5" y="39.862183"><tspan x="47.5" y="39.862183">MDX File Structure Analysis</tspan></text><text x="83" y="192.36218"><tspan x="83" y="192.36218"/></text><text font-family="Sans" font-size="35.259747" letter-spacing="0" transform="scale(-.63756571 1.5684658)" word-spacing="0" x="-83.222855" y="315.48157"><tspan x="-83.222855" y="315.48157">}</tspan></text><text font-family="Sans" font-size="6" letter-spacing="0" word-spacing="0" x="389" y="210.86218"><tspan x="389" y="210.86218">Note: Integer and Long Long Integer have big endian order.</tspan></text><text font-family="Sans" font-size="36.698502" letter-spacing="0" transform="scale(-.64415039 1.5524325)" word-spacing="0" x="-81.867363" y="485.07214"><tspan x="-81.867363" y="485.07214">}</tspan></text><text font-family="Sans" font-size="39.319489" letter-spacing="0" transform="scale(-.60121213 1.6633064)" word-spacing="0" x="-85.950081" y="516.95483"><tspan x="-85.950081" y="516.95483">}</tspan></text><path d="m51.618795 589.81027h-16.263456v146.72466h6.010408m-6.363961-.70711v104.29825h5.303301" fill="none" stroke="#000"/><path d="m48.083261 706.12934h-27.930718v98.28784h27.930718" fill="none" stroke="#000"/><path d="m48.083261 759.16235h-21.302431v123.34296h21.302431" fill="none" stroke="#000" stroke-width=".97832"/><path d="m166.8772 644.25749h155.56349v86.05993h-14.84924" fill="none" stroke="#000" stroke-width=".982817"/><text font-family="Sans" font-size="6" letter-spacing="0" word-spacing="0" x="211.42493" y="638.47931"><tspan x="211.42493" y="638.47931">Number of Bytes</tspan></text><path d="m167.5 679.86218h181.5v160.5h-37" fill="none" stroke="#000" stroke-width=".984778"/><text font-family="Sans" font-size="6" letter-spacing="0" word-spacing="0" x="209.42493" y="673.47931"><tspan x="209.42493" y="673.47931">Number of Bytes</tspan></text><text font-family="Sans" font-size="6" letter-spacing="0" transform="rotate(-90)" word-spacing="0" x="-678.47168" y="27.609495"><tspan x="-678.47168" y="27.609495">Number of Record Blocks</tspan></text><path d="m79.5 106.36218v-10.999998h60.5v12.999998" fill="none" stroke="#000"/><path d="m48.5 237.36218h-24v241h15" fill="none" stroke="#000"/><text font-family="Sans" font-size="6" letter-spacing="0" transform="rotate(-90)" word-spacing="0" x="-395.78894" y="19.237305"><tspan x="-395.78894" y="19.237305">Number of Key Blocks</tspan></text><path d="m165.48939 326.84316h58.52104v87.53804h-14.00504" fill="none" stroke="#000" stroke-width=".970365"/><path d="m164.5 359.36218h78v124h-20.5" fill="none" stroke="#000" stroke-width=".994006"/><path d="m80.000427-115.36218h13.428749v25h-13.428749z" fill="none" stroke="#000" stroke-width=".415" transform="matrix(1 0 0 -1 154 439)"/><path d="m107.58376-115.36218h13.428749v25h-13.428749z" fill="none" stroke="#000" stroke-width=".415" transform="matrix(1 0 0 -1 154 439)"/><path d="m93.667084-115.36218h13.428749v25h-13.428749z" fill="none" stroke="#000" stroke-width=".415" transform="matrix(1 0 0 -1 154 439)"/><path d="m121.25042-115.36218h13.428749v25h-13.428749z" fill="none" stroke="#000" stroke-width=".415" transform="matrix(1 0 0 -1 154 439)"/><g fill="none" stroke="#000" stroke-width=".415" transform="translate(3.5 92.5)"><path d="m285.50043-461.61218h13.428749v25h-13.428749z" transform="scale(1 -1)"/><path d="m299.16708-461.61218h13.428749v25h-13.428749z" transform="scale(1 -1)"/><g transform="matrix(1 0 0 -1 176.5 80.499997)"><path d="m136.58376-381.11218h13.428749v25h-13.428749z"/><path d="m150.25041-381.11218h13.428749v25h-13.428749z"/></g></g><text font-family="Sans" font-size="6" letter-spacing="0" word-spacing="0" x="236.75" y="543.61218"><tspan x="236.75" y="543.61218">01</tspan></text><text font-family="Sans" font-size="6" letter-spacing="0" word-spacing="0" x="250" y="543.61218"><tspan x="250" y="543.61218">00</tspan></text><text font-family="Sans" font-size="6" letter-spacing="0" word-spacing="0" x="264.5" y="543.61218"><tspan x="264.5" y="543.61218">00</tspan></text><text font-family="Sans" font-size="6" letter-spacing="0" word-spacing="0" x="278.25" y="543.61218"><tspan x="278.25" y="543.61218">00</tspan></text><path d="m343.88004 529.11218h166.51741v25h-166.51741z" fill="none" stroke="#000" stroke-width=".691357"/><text font-family="Sans" font-size="14" letter-spacing="0" word-spacing="0" x="383" y="543.86218"><tspan font-size="6" x="383" y="543.86218">LZO Compressed Key Block</tspan></text><text font-family="Sans" font-size="6" letter-spacing="0" word-spacing="0" x="300" xml:space="preserve" y="540.36218"><tspan x="300" y="540.36218">  Adler32</tspan><tspan x="300" y="547.86218">Checksum</tspan></text><path d="m521.5 631.36218-9.5-93.05904" fill="none" stroke="#000" stroke-width="1.201156"/><path d="m80.000427-115.36218h13.428749v25h-13.428749z" fill="none" stroke="#000" stroke-width=".415" transform="matrix(1 0 0 -1 254.00714 834.74429)"/><path d="m107.58376-115.36218h13.428749v25h-13.428749z" fill="none" stroke="#000" stroke-width=".415" transform="matrix(1 0 0 -1 254.00714 834.74429)"/><path d="m93.667084-115.36218h13.428749v25h-13.428749z" fill="none" stroke="#000" stroke-width=".415" transform="matrix(1 0 0 -1 254.00714 834.74429)"/><path d="m121.25042-115.36218h13.428749v25h-13.428749z" fill="none" stroke="#000" stroke-width=".415" transform="matrix(1 0 0 -1 254.00714 834.74429)"/><g fill="none" stroke="#000" stroke-width=".415" transform="translate(-36.5 -43.5)"><path d="m425.50757-993.35645h13.428749v25h-13.428749z" transform="scale(1 -1)"/><path d="m439.17422-993.35645h13.428749v25h-13.428749z" transform="scale(1 -1)"/><g transform="matrix(1 0 0 -1 316.50714 612.24429)"><path d="m136.58376-381.11218h13.428749v25h-13.428749z"/><path d="m150.25041-381.11218h13.428749v25h-13.428749z"/></g></g><text font-family="Sans" font-size="6" letter-spacing="0" word-spacing="0" x="336.75714" y="941.35651"><tspan x="336.75714" y="941.35651">01</tspan></text><text font-family="Sans" font-size="6" letter-spacing="0" word-spacing="0" x="350.00714" y="941.35651"><tspan x="350.00714" y="941.35651">00</tspan></text><text font-family="Sans" font-size="6" letter-spacing="0" word-spacing="0" x="364.50714" y="941.35651"><tspan x="364.50714" y="941.35651">00</tspan></text><text font-family="Sans" font-size="6" letter-spacing="0" word-spacing="0" x="378.25714" y="941.35651"><tspan x="378.25714" y="941.35651">00</tspan></text><path d="m443.88718 924.85645h169.43668v25h-169.43668z" fill="none" stroke="#000" stroke-width=".697391"/><text font-family="Sans" font-size="14" letter-spacing="0" word-spacing="0" x="490" y="938.86218"><tspan font-size="6" x="490" y="938.86218">LZO Compressed Key Block</tspan></text><text font-family="Sans" font-size="14" letter-spacing="0" word-spacing="0" x="399.75714" xml:space="preserve" y="936.35645"><tspan font-size="6" x="399.75714" y="936.35645">  Adler32 </tspan><tspan font-size="6" x="399.75714" y="943.85645">Checksum</tspan></text><path d="m641.69703 1009.0592-24.39406-66.24889" fill="none" stroke="#000" stroke-width="1.624015"/><path d="m80.000427-115.36218h13.428749v25h-13.428749z" fill="none" stroke="#000" stroke-width=".415" transform="matrix(1 0 0 -1 394.5 294.25)"/><path d="m107.58376-115.36218h13.428749v25h-13.428749z" fill="none" stroke="#000" stroke-width=".415" transform="matrix(1 0 0 -1 394.5 294.25)"/><path d="m93.667084-115.36218h13.428749v25h-13.428749z" fill="none" stroke="#000" stroke-width=".415" transform="matrix(1 0 0 -1 394.5 294.25)"/><path d="m121.25042-115.36218h13.428749v25h-13.428749z" fill="none" stroke="#000" stroke-width=".415" transform="matrix(1 0 0 -1 394.5 294.25)"/><path d="m529.51746-409.70624h13.428749v25h-13.428749z" fill="#808000" stroke="#000" stroke-width=".415" transform="scale(1 -1)"/><path d="m543 384.86218h28.149446v25h-28.149446z" fill="none" stroke="#000" stroke-width=".284255"/><text font-family="Sans" font-size="6" letter-spacing="0" word-spacing="0" x="534.54248" xml:space="preserve" y="360.42923"><tspan x="534.54248" y="360.42923">Number </tspan><tspan x="534.54248" y="367.92923">of Bytes</tspan></text><path d="m532.81149 383.1927v-11h28.60077v13" fill="none" stroke="#000" stroke-width=".687561"/><path d="m584.36572 384.86218h28.149446v25h-28.149446z" fill="none" stroke="#000" stroke-width=".284255"/><path d="m572.43029 382.83915v-11h28.60077v13" fill="none" stroke="#000" stroke-width=".687561"/><path d="m571.23676-409.70624h13.428749v25h-13.428749z" fill="#808000" stroke="#000" stroke-width=".415" transform="scale(1 -1)"/><text font-family="Sans" font-size="6" letter-spacing="0" word-spacing="0" x="574.3623" xml:space="preserve" y="361.38937"><tspan x="574.3623" y="361.38937">Number </tspan><tspan x="574.3623" y="368.88937">of Bytes</tspan></text><path d="m80.000427-115.36218h13.428749v25h-13.428749z" fill="none" stroke="#000" stroke-width=".415" transform="matrix(1 0 0 -1 546.67352 294.42678)"/><path d="m107.58376-115.36218h13.428749v25h-13.428749z" fill="none" stroke="#000" stroke-width=".415" transform="matrix(1 0 0 -1 546.67352 294.42678)"/><path d="m93.667084-115.36218h13.428749v25h-13.428749z" fill="none" stroke="#000" stroke-width=".415" transform="matrix(1 0 0 -1 546.67352 294.42678)"/><path d="m121.25042-115.36218h13.428749v25h-13.428749z" fill="none" stroke="#000" stroke-width=".415" transform="matrix(1 0 0 -1 546.67352 294.42678)"/><path d="m80.000427-115.36218h13.428749v25h-13.428749z" fill="none" stroke="#000" stroke-width=".415" transform="matrix(1 0 0 -1 601.4743 294.42678)"/><path d="m107.58376-115.36218h13.428749v25h-13.428749z" fill="none" stroke="#000" stroke-width=".415" transform="matrix(1 0 0 -1 601.4743 294.42678)"/><path d="m93.667084-115.36218h13.428749v25h-13.428749z" fill="none" stroke="#000" stroke-width=".415" transform="matrix(1 0 0 -1 601.4743 294.42678)"/><path d="m121.25042-115.36218h13.428749v25h-13.428749z" fill="none" stroke="#000" stroke-width=".415" transform="matrix(1 0 0 -1 601.4743 294.42678)"/><text font-family="Sans" font-size="6" letter-spacing="0" word-spacing="0" x="638.89581" y="397.82217"><tspan x="638.89581" y="397.82217">Compressed</tspan><tspan x="638.89581" y="405.32217">Size</tspan></text><text font-family="Sans" font-size="6" letter-spacing="0" word-spacing="0" x="689.45398" y="396.88284"><tspan x="689.45398" y="396.88284">Decompressed</tspan><tspan x="689.45398" y="404.38284">Size</tspan></text><path d="m80.000427-115.36218h13.428749v25h-13.428749z" fill="none" stroke="#000" stroke-width=".415" transform="matrix(1 0 0 -1 229 223)"/><path d="m107.58376-115.36218h13.428749v25h-13.428749z" fill="none" stroke="#000" stroke-width=".415" transform="matrix(1 0 0 -1 229 223)"/><path d="m93.667084-115.36218h13.428749v25h-13.428749z" fill="none" stroke="#000" stroke-width=".415" transform="matrix(1 0 0 -1 229 223)"/><path d="m121.25042-115.36218h13.428749v25h-13.428749z" fill="none" stroke="#000" stroke-width=".415" transform="matrix(1 0 0 -1 229 223)"/><g fill="none" stroke="#000" stroke-width=".415" transform="translate(78.5 -123.5)"><path d="m285.50043-461.61218h13.428749v25h-13.428749z" transform="scale(1 -1)"/><path d="m299.16708-461.61218h13.428749v25h-13.428749z" transform="scale(1 -1)"/><g transform="matrix(1 0 0 -1 176.5 80.499997)"><path d="m136.58376-381.11218h13.428749v25h-13.428749z"/><path d="m150.25041-381.11218h13.428749v25h-13.428749z"/></g></g><text font-family="Sans" font-size="6" letter-spacing="0" word-spacing="0" x="311.75" y="327.61218"><tspan x="311.75" y="327.61218">02</tspan></text><text font-family="Sans" font-size="6" letter-spacing="0" word-spacing="0" x="325" y="327.61218"><tspan x="325" y="327.61218">00</tspan></text><text font-family="Sans" font-size="6" letter-spacing="0" word-spacing="0" x="339.5" y="327.61218"><tspan x="339.5" y="327.61218">00</tspan></text><text font-family="Sans" font-size="6" letter-spacing="0" word-spacing="0" x="353.25" y="327.61218"><tspan x="353.25" y="327.61218">00</tspan></text><path d="m418.88004 313.11218h166.51741v25h-166.51741z" fill="none" stroke="#000" stroke-width=".691357"/><text font-family="Sans" font-size="14" letter-spacing="0" word-spacing="0" x="458" y="323.86218"><tspan font-size="6" x="458" y="323.86218">Zlib Compressed Key Block Info</tspan></text><text font-family="Sans" font-size="6" letter-spacing="0" word-spacing="0" x="560" y="420.36218"><tspan x="560" y="420.36218">.............................</tspan></text><text font-family="Sans" font-size="6" letter-spacing="0" word-spacing="0" x="257.94843" y="323.60196"><tspan x="257.94843" y="323.60196">Version &gt;= 2.0</tspan></text><text font-family="Sans" font-size="6" letter-spacing="0" word-spacing="0" x="273.29678" y="423.90454"><tspan x="273.29678" y="423.90454">Version &lt;2.0</tspan></text><text font-family="Sans" font-size="10" letter-spacing="0" word-spacing="0" x="49.043415" y="72.887566"><tspan x="49.043415" y="72.887566">Header</tspan></text><text font-family="Sans" font-size="10" letter-spacing="0" word-spacing="0" x="68.038361" y="206.22566"><tspan x="68.038361" y="206.22566">Key Block</tspan></text><text font-family="Sans" font-size="10" letter-spacing="0" word-spacing="0" x="57.038361" y="554.22565"><tspan x="57.038361" y="554.22565">Record Block</tspan></text><text font-family="Sans" font-size="14" letter-spacing="0" word-spacing="0" x="58" y="397.36218"><tspan font-size="6" x="58" y="397.36218">Only when Version &gt;= 2.0</tspan></text><text font-family="Sans" font-size="14" letter-spacing="0" word-spacing="0" x="415" y="76.362183"><tspan font-size="6" x="415" y="76.362183">1 Byte when version &lt; 2.0</tspan><tspan font-size="6" x="415" y="83.862183">2 Byets when version &gt;= 2.0</tspan></text><text font-family="Sans" font-size="36.781361" letter-spacing="0" transform="scale(-.61119013 1.6361521)" word-spacing="0" x="-773.18011" y="272.91278"><tspan x="-773.18011" y="272.91278">}</tspan></text><g stroke="#000"><path d="m80.000427-115.36218h13.428749v25h-13.428749z" fill="none" stroke-width=".415" transform="matrix(1 0 0 -1 393 343.25)"/><path d="m107.58376-115.36218h13.428749v25h-13.428749z" fill="none" stroke-width=".415" transform="matrix(1 0 0 -1 393 343.25)"/><path d="m93.667084-115.36218h13.428749v25h-13.428749z" fill="none" stroke-width=".415" transform="matrix(1 0 0 -1 393 343.25)"/><path d="m121.25042-115.36218h13.428749v25h-13.428749z" fill="none" stroke-width=".415" transform="matrix(1 0 0 -1 393 343.25)"/><path d="m528.01746-458.70624h13.428749v25h-13.428749z" fill="#808000" stroke-width=".415" transform="scale(1 -1)"/><path d="m541.5 433.86218h28.149446v25h-28.149446z" fill="none" stroke-width=".284255"/><path d="m582.86572 433.86218h28.149446v25h-28.149446z" fill="none" stroke-width=".284255"/><path d="m569.73676-458.70624h13.428749v25h-13.428749z" fill="#808000" stroke-width=".415" transform="scale(1 -1)"/><path d="m80.000427-115.36218h13.428749v25h-13.428749z" fill="none" stroke-width=".415" transform="matrix(1 0 0 -1 547.17352 343.42678)"/><path d="m107.58376-115.36218h13.428749v25h-13.428749z" fill="none" stroke-width=".415" transform="matrix(1 0 0 -1 547.17352 343.42678)"/><path d="m93.667084-115.36218h13.428749v25h-13.428749z" fill="none" stroke-width=".415" transform="matrix(1 0 0 -1 547.17352 343.42678)"/><path d="m121.25042-115.36218h13.428749v25h-13.428749z" fill="none" stroke-width=".415" transform="matrix(1 0 0 -1 547.17352 343.42678)"/><path d="m80.000427-115.36218h13.428749v25h-13.428749z" fill="none" stroke-width=".415" transform="matrix(1 0 0 -1 601.9743 343.42678)"/><path d="m107.58376-115.36218h13.428749v25h-13.428749z" fill="none" stroke-width=".415" transform="matrix(1 0 0 -1 601.9743 343.42678)"/><path d="m93.667084-115.36218h13.428749v25h-13.428749z" fill="none" stroke-width=".415" transform="matrix(1 0 0 -1 601.9743 343.42678)"/><path d="m121.25042-115.36218h13.428749v25h-13.428749z" fill="none" stroke-width=".415" transform="matrix(1 0 0 -1 601.9743 343.42678)"/></g><text font-family="Sans" font-size="6" letter-spacing="0" word-spacing="0" x="639.39581" y="446.82217"><tspan x="639.39581" y="446.82217">Compressed</tspan><tspan x="639.39581" y="454.32217">Size</tspan></text><text font-family="Sans" font-size="6" letter-spacing="0" word-spacing="0" x="689.95398" y="445.88284"><tspan x="689.95398" y="445.88284">Decompressed</tspan><tspan x="689.95398" y="453.38284">Size</tspan></text><text font-family="Sans" font-size="6" letter-spacing="0" word-spacing="0" x="187.5" xml:space="preserve" y="119.36218"><tspan x="187.5" y="119.36218">   Integer</tspan><tspan x="187.5" y="126.86218">(Little Endian)</tspan></text><path d="m157.5 106.36218v-10.999998h60.5v12.999998" fill="none" stroke="#000"/><text font-family="Sans" font-size="6" letter-spacing="0" word-spacing="0" x="160.25" y="89.862183"><tspan x="160.25" y="89.862183">Adler32 Checksum</tspan></text><text font-family="Sans" font-size="6" letter-spacing="0" word-spacing="0" x="483.04248" xml:space="preserve" y="394.42923"><tspan x="483.04248" y="394.42923">Number </tspan><tspan x="483.04248" y="401.92923">of Entries</tspan></text><text font-family="Sans" font-size="6" letter-spacing="0" word-spacing="0" x="481.54248" xml:space="preserve" y="443.42923"><tspan x="481.54248" y="443.42923">Number </tspan><tspan x="481.54248" y="450.92923">of Entries</tspan></text><text font-family="Sans" font-size="14" letter-spacing="0" word-spacing="0" x="399.75714" xml:space="preserve" y="910.35645"><tspan font-size="6" x="399.75714" y="910.35645">  Adler32 </tspan><tspan font-size="6" x="399.75714" y="917.85645">Checksum</tspan></text><text font-family="Sans" font-size="14" letter-spacing="0" word-spacing="0" x="399.75714" xml:space="preserve" y="962.35645"><tspan font-size="6" x="399.75714" y="962.35645">  Adler32 </tspan><tspan font-size="6" x="399.75714" y="969.85645">Checksum</tspan></text><text font-family="Sans" font-size="6" letter-spacing="0" word-spacing="0" x="300" xml:space="preserve" y="566.36218"><tspan x="300" y="566.36218">  Adler32</tspan><tspan x="300" y="573.86218">Checksum</tspan></text><text font-family="sans-serif" font-size="40" letter-spacing="0" transform="matrix(-.01692283 .9998568 -.9998568 -.01692283 0 0)" word-spacing="0" x="346.35706" y="-452.70364"><tspan font-size="10" x="346.35706" y="-452.70364">decompress</tspan></text><text font-family="Sans" font-size="6" letter-spacing="0" word-spacing="0" x="376" xml:space="preserve" y="324.86218"><tspan x="376" y="324.86218">  Adler32</tspan><tspan x="376" y="332.36218">Checksum</tspan></text><text font-family="Sans" font-size="14" letter-spacing="0" word-spacing="0" x="70" y="299.36218"><tspan font-size="6" x="70" y="299.36218">Only when Version &gt;= 2.0</tspan></text><path d="m163.55033 304.53696h43.9862v-37.51382h276.4133v40.3995" fill="none" stroke="#000" stroke-width="1.200994"/><text font-family="Sans" font-size="14" letter-spacing="0" word-spacing="0" x="290" y="261.86218"><tspan font-size="6" x="290" y="261.86218">Number of Bytes After Decompression</tspan></text><text font-family="Sans" font-size="14" letter-spacing="0" word-spacing="0" x="58" y="387.36218"><tspan font-size="6" x="58" y="387.36218">Adler32 Checksum of Previouse 5 Bytes</tspan></text><text font-family="Sans" font-size="6" letter-spacing="0" word-spacing="0" x="300" xml:space="preserve" y="512.36218"><tspan x="300" y="512.36218">  Adler32</tspan><tspan x="300" y="519.86218">Checksum</tspan></text><text font-family="Sans" font-size="14" letter-spacing="0" word-spacing="0" x="436" xml:space="preserve" y="333.86218"><tspan font-size="6" x="436" y="333.86218">It can be encrypted when <tspan font-family="Sans" font-weight="bold">Encrypted</tspan> is 2 or 3</tspan></text><path d="m440.98122 339.38016v76.53463 8.50385h20.53849" fill="none" stroke="#000" stroke-width=".923028"/><path d="m615.5 398.36218h10" fill="none" stroke="#000" stroke-dasharray="1 3"/><path d="m615.5 446.36218h10" fill="none" stroke="#000" stroke-dasharray="1 3"/><path d="m211 424.86218h55.5v-95.5h39.5m-39.5 95v20.5h194.5" fill="none" stroke="#000"/></svg>